<?xml version="1.0" encoding="utf-8"?>
<!-- Generator: Adobe Illustrator 24.0.3, SVG Export Plug-In . SVG Version: 6.00 Build 0)  -->
<svg version="1.1" id="Capa_1" xmlns="http://www.w3.org/2000/svg" xmlns:xlink="http://www.w3.org/1999/xlink" x="0px" y="0px"
	 viewBox="0 0 99.4 99.4" style="enable-background:new 0 0 99.4 99.4;" xml:space="preserve">
<style type="text/css">
	.st0{fill:#D5A26F;}
</style>
<g>
	<g>
		<circle class="st0" cx="70.2" cy="21.4" r="10.8"/>
		<path class="st0" d="M55.5,57.5c0-1.9-1.5-3.4-3.4-3.4h-6.3L44,44.6l-3.8,0.7c-0.2,0-0.4,0.1-0.6,0.1l-3,0.6
			c-0.2-0.9-0.7-1.6-1.3-2.1l8.6-1.6c0,0,0-3.1,0.3-3.2c0.4-0.1,0.8-0.3,1.3-0.4c1.2-0.4,2.3-1.1,3.2-2c1.5-1.6,2.5-4,0.8-6.1
			c-1.5-1.9-7.2,0.7-7.9,0.7c-2.1,0-3.6-0.9-5.7-0.7c-0.4,0-0.7,0.1-1.1,0.2c-0.2,0-0.3,0-0.5-0.2c-0.4-0.6-0.9-1.1-1.3-1.7
			c-0.8-1-1.9-1.6-3.1-1.5c-0.5,0.1-2.7,0.7-1,3.8c0.4,0.7,0.7,1.4,0.9,2.1l0.5,2.7c-0.3-0.1-0.6-0.1-0.9-0.1c-2.2,0-4,1.8-4,4
			c0,2.2,1.8,4,4,4c0.8,0,1.6-0.2,2.2-0.7l0.1,0.4c-1.2,0.6-2,1.8-2,3.2c0,0.6,0.2,1.2,0.5,1.7l-0.7,1c-0.4-0.4-1-0.7-1.6-0.7
			c-1.2,0-2.3,1-2.3,2.3c0,0.9,0.6,1.7,1.4,2.1l-0.7,1H3.4c-1.9,0-3.4,1.5-3.4,3.4s1.5,3.4,3.4,3.4h0c-0.5,1.1-0.7,2.4-0.7,3.7V74
			c0,5.3,4.3,9.6,9.6,9.6h30.9c5.3,0,9.6-4.3,9.6-9.6v-9.3c0-1.3-0.3-2.6-0.7-3.7h0C54,60.9,55.5,59.4,55.5,57.5z M27.8,51.8
			c-0.4,0-0.7-0.3-0.7-0.7s0.3-0.7,0.7-0.7s0.7,0.3,0.7,0.7S28.2,51.8,27.8,51.8z M29.3,42.3c-1.4,0-2.5-1.1-2.5-2.5
			s1.1-2.5,2.5-2.5c1.4,0,2.5,1.1,2.5,2.5C31.7,41.2,30.6,42.3,29.3,42.3z M33.1,48.8c-1.1,0-2.1-0.9-2.1-2.1c0-1.1,0.9-2.1,2.1-2.1
			s2.1,0.9,2.1,2.1C35.2,47.9,34.3,48.8,33.1,48.8z M40.5,50.3c-1,0-1.8-0.8-1.8-1.8c0-1,0.8-1.8,1.8-1.8c1,0,1.8,0.8,1.8,1.8
			C42.3,49.5,41.5,50.3,40.5,50.3z"/>
		<path class="st0" d="M17.1,43.4c2,0,3.6-1.6,3.6-3.6s-1.6-3.6-3.6-3.6s-3.6,1.6-3.6,3.6C13.5,41.8,15.2,43.4,17.1,43.4z
			 M17.1,37.7c1.1,0,2.1,0.9,2.1,2.1c0,1.1-0.9,2.1-2.1,2.1c-1.1,0-2.1-0.9-2.1-2.1C15.1,38.7,16,37.7,17.1,37.7z"/>
		<path class="st0" d="M96.2,78.8l-10.1-4.3l4.7-8.2c1-1.6,0.8-3.9,0.6-4.9l-5-23.3c-0.9-4.3-5.3-6.4-9.1-6.5l0,0c0,0-1.3,0-2.5,0.2
			c-1.2,0.2-2.2,0.8-2.2,0.8c-2.8,1.3-5.4,4.1-5.7,7.5c-0.2,1.5,0,5.9-2.4,6.3C62.4,46.8,57.4,46,54,45c-2.2-0.7-4.6,0.6-5.2,2.8
			s0.6,4.6,2.8,5.2c4.1,1.2,7.8,2.2,11.1,2.2c2.3,0,4.5-0.5,6.4-1.7c0.1-0.1,0.2-0.2,0.4-0.3l1.3,5.9l-6.1-0.8
			c-1.9-0.3-3.7,0.4-5,1.8c-1.3,1.4-1.8,3.3-1.3,5.2l4.4,18.7c0.6,2.6,3,4.4,5.6,4.4c0.4,0,0.9-0.1,1.3-0.2c3.1-0.7,5-3.8,4.3-6.9
			l-2.5-10.6l4.7,0.7l-1.8,3.1c-0.7,1.3-0.9,2.8-0.4,4.2c0.5,1.4,1.5,2.5,2.9,3.1l15.4,6.5c0.7,0.3,1.4,0.4,2,0.4c2,0,4-1.2,4.8-3.2
			C100.1,83,98.9,79.9,96.2,78.8z"/>
	</g>
</g>
</svg>
