<?xml version="1.0" encoding="utf-8"?>
<!-- Generator: Adobe Illustrator 24.0.3, SVG Export Plug-In . SVG Version: 6.00 Build 0)  -->
<svg version="1.1" id="Capa_1" xmlns="http://www.w3.org/2000/svg" xmlns:xlink="http://www.w3.org/1999/xlink" x="0px" y="0px"
	 viewBox="0 0 97.7 97.7" style="enable-background:new 0 0 97.7 97.7;" xml:space="preserve">
<style type="text/css">
	.st0{fill:#D5A26F;}
</style>
<g>
	<g>
		<polygon class="st0" points="20.3,63 20.3,68.9 24.7,68.9 24.7,97.7 29.6,97.7 29.6,68.9 69.1,68.9 69.1,97.7 74.1,97.7 
			74.1,68.9 78.5,68.9 78.5,63 		"/>
		<path class="st0" d="M48.2,46.1l-9.4-5.4h0c-0.7,0.8-1.5,1.5-2.2,2.2l-0.4,0.4c-1.3,1.3-2.8,2.3-4.9,2.4c-2.2,0.2-4.1-1.4-4.1-1.4
			s-2-1.5-2-4.7l-2.6-2.1c-0.9-0.7-2.1-0.6-2.8,0.3c-0.7,0.9-0.6,2.1,0.3,2.8l3.9,3.2v8.6c0,0-3.4,6.8-3.4,6.8
			c-0.5,1-0.1,2.2,0.9,2.7c0.3,0.2,0.6,0.2,0.9,0.2c0.7,0,1.4-0.4,1.8-1.1l3.5-6.7l3.9,6.8c0.4,0.6,1.1,1,1.8,1c0.3,0,0.7-0.1,1-0.3
			c1-0.6,1.3-1.8,0.7-2.8l-3.4-5.9h12.6v6.9c0,1.1,0.9,2,2,2s2-0.9,2-2L48.2,46.1z"/>
		<path class="st0" d="M48.5,27.9c-0.3-0.2-2-1-2.7,1.7c-0.2,0.6-0.4,1.2-0.7,1.7c-1,2-2.4,3.8-3.6,5.7c-0.6,0.8-1.2,1.7-1.7,2.5
			l8.8,5c0,0,1.7-1.9,1.9-1.8c0.3,0.1,0.7,0.3,1,0.4c1,0.4,2,0.6,3,0.6c1.8-0.1,3.7-1.1,3.9-3.2c0.2-2-4.7-3.5-5.1-3.9
			c-1.2-1.2-1.7-2.6-3.1-3.6c-0.2-0.2-0.5-0.3-0.8-0.5c-0.2-0.1-0.2-0.2-0.2-0.4c0.1-0.6,0.1-1.2,0.2-1.7
			C49.6,29.4,49.3,28.5,48.5,27.9z"/>
		<path class="st0" d="M50.5,0c-1.6,0.5-3,1.4-4.2,2.5H49C49.2,1.5,49.7,0.6,50.5,0z"/>
		<path class="st0" d="M58,2.5h2.6c-1.1-1.1-2.5-2-4-2.5C57.3,0.7,57.8,1.5,58,2.5z"/>
		<path class="st0" d="M53.5,8.2c-2,0-3.6-1.2-4.3-2.9h-4.8c-0.7,1.4-1.1,2.9-1.1,4.5c0,5.6,4.5,10.2,10.2,10.2
			c5.6,0,10.2-4.5,10.2-10.2c0-1.6-0.4-3.1-1.1-4.5h-4.7C57.1,6.9,55.5,8.2,53.5,8.2z"/>
		<path class="st0" d="M53.5,6.1c1.4,0,2.6-1.2,2.6-2.6c0-1.4-1.2-2.6-2.6-2.6s-2.6,1.2-2.6,2.6C50.9,5,52.1,6.1,53.5,6.1z"/>
		<path class="st0" d="M53.6,93.1c0,2.6,2.1,4.7,4.7,4.7c2.6,0,4.7-2.1,4.7-4.7l0-22.3h-9.3L53.6,93.1z"/>
		<path class="st0" d="M43.6,70.8l0,22.3c0,2.6,2.1,4.7,4.7,4.7c2.6,0,4.7-2.1,4.7-4.7l0-22.3H43.6z"/>
		<path class="st0" d="M31.1,43.9c1.1,0,2.1-0.6,3-1.4c3.4-3,6.5-7.6,6.5-7.6c1.1-1.5,2-3,2.9-4.5c0.2-0.4,0.4-0.8,0.5-1.3
			c0.8-3.1,2.8-3.5,3.7-3.5c1,0,1.7,0.4,2,0.6l0,0c0,0,0.1,0.1,0.1,0.1c1,0.7,1.6,1.8,1.8,3.1c0,0.1,0,0.2,0,0.2c0,0.1,0,0.3,0,0.4
			c0,0.2,0,0.4,0,0.7c0,0.3,0,0.5-0.1,0.8c1.1,0.8,1.7,1.7,2.2,2.4c0.3,0.4,0.6,0.8,0.9,1.2c0.1,0.1,0.3,0.1,0.5,0.2
			c2,0.9,5.1,2.3,5.3,4.9c0,0.2,0,0.3,0,0.5c-0.1,0.7-0.2,1.4-0.5,2c-0.9,1.8-2.8,3-5.2,3.1c-1.3,0.1-2.6-0.1-3.9-0.7
			c-0.2,0.2-0.5,0.5-0.7,0.7l0,14.4c0,0.2,0,0.5-0.1,0.7h12.8v-5.4c0.6-1.1,1-2.4,1-3.8V39.3c0,0,0.8,1,1.1,2.5
			c0.3,1.8,0.3,5.3,0,8.8c-0.2,2.2,1.4,4.1,3.5,4.3c0.1,0,0.3,0,0.4,0c2,0,3.7-1.5,3.9-3.6C74.5,33.6,64,23.7,56,20.5L53.5,23
			L51,20.4c0,0,0,0,0,0c-1.4,0.3-6.9,3.2-9.1,4.6c-8.2,5.4-13.2,11.7-13.8,12.3c-1.4,1.6-1.2,4.1,0.4,5.6
			C29.3,43.6,30.2,43.9,31.1,43.9z"/>
	</g>
</g>
</svg>
