<?xml version="1.0" encoding="utf-8"?>
<!-- Generator: Adobe Illustrator 24.0.3, SVG Export Plug-In . SVG Version: 6.00 Build 0)  -->
<svg version="1.1" id="Capa_1" xmlns="http://www.w3.org/2000/svg" xmlns:xlink="http://www.w3.org/1999/xlink" x="0px" y="0px"
	 viewBox="0 0 98.2 98.2" style="enable-background:new 0 0 98.2 98.2;" xml:space="preserve">
<style type="text/css">
	.st0{fill:#D5A26F;}
</style>
<g>
	<g>
		<path class="st0" d="M64.4,25c-6.4,1.4-12.7-2.7-14-9.1c-1.4-6.4,2.7-12.6,9.1-14c6.4-1.4,12.7,2.7,14,9.1
			C74.9,17.3,70.8,23.6,64.4,25z"/>
		<path class="st0" d="M1.3,76.2l5.3-2.1l8.7-15.4l11.2-8.2l5.1,2.9l5.2-1.9c0.7-1.7,2.3-2.8,4.2-2.8c10.6,0,16.8-7.6,17.3-14.9
			c0.4-3.7,3.2-6.7,6.2-8.1c0,0,1.1-0.6,2.4-0.9c1.2-0.2,2.7-0.2,2.7-0.2l0,0c4.1,0.1,8.9,2.4,9.9,7.1l5.5,25.5
			c0.3,1.5,0.2,3-0.3,4.3c-0.1,0.3-5.7,14.2-5.7,14.2H92c3.5,0,6.3,2.8,6.3,6.3s-2.8,6.2-6.3,6.2H69.8c-2.1,0-4-1-5.2-2.8
			c-1.2-1.7-1.4-3.9-0.6-5.8l3.5-8.6L60,73.2l2.9,15.7c0.6,3.4-1.6,6.6-5,7.3c-0.4,0.1-0.8,0.1-1.1,0.1c-3,0-5.6-2.1-6.1-5.1
			l-3.9-21.3c-0.6-3.2,1.3-6.2,4.4-7.1l12.3-3.5l-2-9.3c-4.5,5.3-11.4,8-20.4,8c-1.1,0-2.1-0.4-2.9-1.1l-4.3,1.6L21.8,81.2l0.5,12.3
			c0.1,1.5-1.1,2.7-2.6,2.8c0,0-0.1,0-0.1,0c-1.4,0-2.6-1.1-2.7-2.6l-0.3-7.8l-1.3,8.4c-0.2,1.3-1.4,2.3-2.7,2.3c-0.1,0-0.3,0-0.4,0
			c-1.5-0.2-2.5-1.6-2.3-3.1l2.1-13.8l-3.6-2.1l-5.7,2.3C2.5,80,2.2,80,2,80c-0.8,0-1.5-0.5-1.9-1.3C-0.3,77.8,0.2,76.6,1.3,76.2z"
			/>
		<path class="st0" d="M25.4,44.7c-0.4,0.3-0.7,0.7-1.1,1c-0.3,0.2,1.2,3.6,1.2,3.6l-10.9,7.9c-0.7-1.2-1.5-2.3-2.2-3.5
			c-1.6-2.5-3.2-5.1-5.1-7.4c-0.5-0.6-1.1-1.2-1.8-1.7c-3-2.3-1.1-3.9-0.6-4.2c1.2-0.7,2.5-0.6,3.7,0.1c0.7,0.4,1.4,0.7,2,1.1
			c0.2,0.1,0.4,0.1,0.5,0c0.3-0.2,0.7-0.5,1-0.7c2-1.2,3.9-1,6-1.9c0.7-0.3,5.2-5.4,7.5-4.2c2.6,1.4,2.8,4.2,1.9,6.4
			C27.2,42.6,26.5,43.8,25.4,44.7z"/>
	</g>
</g>
</svg>
