<?xml version="1.0" encoding="utf-8"?>
<!-- Generator: Adobe Illustrator 24.0.3, SVG Export Plug-In . SVG Version: 6.00 Build 0)  -->
<svg version="1.1" id="Capa_1" xmlns="http://www.w3.org/2000/svg" xmlns:xlink="http://www.w3.org/1999/xlink" x="0px" y="0px"
	 viewBox="0 0 93.4 93.4" style="enable-background:new 0 0 93.4 93.4;" xml:space="preserve">
<style type="text/css">
	.st0{fill:#D5A26F;}
</style>
<g>
	<g>
		<path class="st0" d="M92.9,40.4L65.5,2.2c-0.7-1-1.5-1.5-2.3-1.5c-0.8,0-1.6,0.5-2.1,1.3L33.7,40.2c-0.9,1.2-0.6,2.8,0.6,3.7
			c1.2,0.8,2.9,0.5,3.7-0.6l2.4-3.4v35.7c0,0.8,0.7,1.5,1.5,1.5h42.8c0.8,0,1.5-0.7,1.5-1.5V40.1l2.4,3.4c0.8,1.1,2.6,1.4,3.7,0.6
			c0.6-0.4,1-1,1.1-1.7C93.5,41.7,93.3,41,92.9,40.4z M79.7,72.2h-6.4V60.6c0-5.6-4.5-10.1-10.1-10.1c-5.6,0-10.1,4.5-10.1,10.1
			v11.6h-6.4V37.5h33V72.2z"/>
		<path class="st0" d="M51.4,88.1h-7.7l-18-26.4L8.5,58.3l-6.1,30c-0.4,1.9,0.8,3.8,2.8,4.2c0.2,0.1,0.5,0.1,0.7,0.1
			c1.6,0,3.1-1.2,3.5-2.8l3.4-16.5l6.1,12.2l-3.2,0c0,0,0,0,0,0c-2,0-3.6,1.6-3.6,3.6c0,2,1.6,3.6,3.6,3.6l35.7,0
			c1.3,0,2.3-1,2.3-2.3C53.7,89.1,52.7,88.1,51.4,88.1z"/>
		<path class="st0" d="M8.2,51c0.4,0.1,0.4,4.3,0.4,4.3l16.2,3l2.7-15.1c0.3-1,0.7-1.9,1.1-2.8c2.2-4.1-0.7-5-1.4-5
			c-1.7-0.2-3.1,0.6-4.1,2c-0.6,0.7-1.2,1.5-1.7,2.3c-0.2,0.2-0.3,0.3-0.6,0.2c-0.5-0.1-1-0.2-1.5-0.2c-2.8-0.4-4.8,0.8-7.6,0.9
			c-0.9,0-8.5-3.5-10.5-0.9c-2.2,2.8-1,6,1.1,8.2c1.2,1.3,2.6,2.1,4.3,2.7C7.1,50.7,7.6,50.9,8.2,51z"/>
	</g>
</g>
</svg>
