<svg id="Layer_1" height="512" viewBox="0 0 128 128" width="512" xmlns="http://www.w3.org/2000/svg" data-name="Layer 1"><path d="m55.989 78.868a1.75 1.75 0 0 1 1.75-1.75h12.522a1.75 1.75 0 0 1 0 3.5h-12.522a1.75 1.75 0 0 1 -1.75-1.75zm-37.411 1.75h1.977a1.75 1.75 0 0 0 0-3.5h-1.976a1.75 1.75 0 0 0 0 3.5zm106.656 11.8v18.545a1.75 1.75 0 0 1 -1.75 1.75h-6.153v2.611a4.314 4.314 0 0 1 -8.627 0v-2.611h-89.404v2.611a4.314 4.314 0 0 1 -8.627 0v-2.611h-6.157a1.75 1.75 0 0 1 -1.75-1.75v-18.548a1.75 1.75 0 0 1 1.75-1.75h7.744a4.76 4.76 0 0 1 -.052-2.384l.725-3.073h-3.162a1.75 1.75 0 0 1 -1.75-1.75v-73.342a1.75 1.75 0 0 1 1.75-1.75h108.458a1.75 1.75 0 0 1 1.75 1.75v73.342a1.75 1.75 0 0 1 -1.75 1.75h-3.162l.725 3.073a4.759 4.759 0 0 1 -.052 2.383h7.744a1.75 1.75 0 0 1 1.75 1.751zm-13.763-7.207h-3.471l1.949 4.667a1.281 1.281 0 0 0 1.185.789 1.284 1.284 0 0 0 1.25-1.579zm-4.983 5.457-2.279-5.457h-80.418l-2.279 5.457zm-18.078 3.5a1.985 1.985 0 0 0 1.981 1.913h9.276a1.985 1.985 0 0 0 1.981-1.913zm-62.059 0a1.985 1.985 0 0 0 1.981 1.913h9.276a1.985 1.985 0 0 0 1.981-1.913zm90.128-76.58h-104.958v54.94h104.958zm-104.959-3.5h104.959v-2.222h-104.958zm0 67.624h104.959v-5.68h-104.958zm5.343 8.957a1.281 1.281 0 0 0 1.185-.789l1.952-4.672h-3.471l-.915 3.877a1.284 1.284 0 0 0 1.25 1.58zm-10.6 18.545h55.987v-15.049h-19.162a5.487 5.487 0 0 1 -5.479 5.413h-9.276a5.487 5.487 0 0 1 -5.479-5.413h-16.588zm9.531 3.5h-1.625v2.611a.814.814 0 0 0 1.627 0zm98.035 0h-1.629v2.611a.814.814 0 0 0 1.627 0zm7.9-18.545h-16.583a5.487 5.487 0 0 1 -5.479 5.413h-9.276a5.487 5.487 0 0 1 -5.479-5.413h-19.162v15.045h55.984z"/></svg>