<svg height="512pt" viewBox="-61 0 512 512" width="512pt" xmlns="http://www.w3.org/2000/svg"><path d="m390 195c0-107.523438-87.476562-195-195-195s-195 87.476562-195 195c0 86.425781 56.523438 159.890625 134.542969 185.394531-2.515625 30.910157-15.53125 59.816407-37.296875 82.34375l-23.03125 23.839844c-4.1875 4.328125-5.375 10.738281-3.023438 16.28125 2.351563 5.542969 7.789063 9.140625 13.808594 9.140625h220c6.019531 0 11.457031-3.597656 13.808594-9.140625 2.351562-5.542969 1.164062-11.953125-3.019532-16.28125l-23.03125-23.839844c-21.769531-22.527343-34.785156-51.433593-37.296874-82.34375 78.015624-25.503906 134.539062-98.96875 134.539062-185.394531zm-120.332031 287h-149.335938c24.636719-26.171875 39.78125-59.140625 43.664063-94.476562 10.101562 1.621093 20.453125 2.476562 31.003906 2.476562s20.902344-.855469 31.003906-2.476562c3.882813 35.335937 19.027344 68.304687 43.664063 94.476562zm-74.667969-122c-90.980469 0-165-74.019531-165-165s74.019531-165 165-165 165 74.019531 165 165-74.019531 165-165 165zm0 0"/><path d="m195 90c-57.898438 0-105 47.101562-105 105s47.101562 105 105 105 105-47.101562 105-105-47.101562-105-105-105zm0 180c-41.355469 0-75-33.644531-75-75s33.644531-75 75-75 75 33.644531 75 75-33.644531 75-75 75zm0 0"/><path d="m210 437c0 8.285156-6.714844 15-15 15s-15-6.714844-15-15 6.714844-15 15-15 15 6.714844 15 15zm0 0"/></svg>